<svg xmlns="http://www.w3.org/2000/svg" version="1.1" xmlns:xlink="http://www.w3.org/1999/xlink" viewBox="0 0 200 200" width="200" height="200"><metadata><rdf:RDF xmlns:rdf="http://www.w3.org/1999/02/22-rdf-syntax-ns#" xmlns:dc="http://purl.org/dc/elements/1.1/"><rdf:Description><dc:creator>RealFaviconGenerator</dc:creator><dc:source>https://realfavicongenerator.net</dc:source></rdf:Description></rdf:RDF></metadata><rect width="200" height="200" fill="url('#gradient')"></rect><defs><linearGradient id="gradient" gradientTransform="rotate(45 0.5 0.5)"><stop offset="0%" stop-color="#0f5c53"></stop><stop offset="100%" stop-color="#926863"></stop></linearGradient></defs><g><g fill="#1d1842" transform="matrix(8.236152570480929,0,0,8.236152570480929,-3.608929391583402,158.56330010428357)" stroke="#4d1f42" stroke-width="0.35"><path d="M12.71-7.60L12.71-1.76Q11.92-0.88 10.40-0.34Q8.88 0.20 7.06 0.20L7.06 0.20Q4.27 0.20 2.60-1.51Q0.93-3.22 0.81-6.27L0.81-6.27L0.80-7.50Q0.80-9.60 1.54-11.17Q2.29-12.73 3.67-13.58Q5.05-14.42 6.87-14.42L6.87-14.42Q9.52-14.42 10.99-13.21Q12.46-11.99 12.71-9.58L12.71-9.58L9.40-9.58Q9.23-10.77 8.64-11.28Q8.06-11.79 6.98-11.79L6.98-11.79Q5.69-11.79 4.99-10.69Q4.29-9.60 4.28-7.57L4.28-7.57L4.28-6.71Q4.28-4.58 5.00-3.51Q5.73-2.44 7.29-2.44L7.29-2.44Q8.63-2.44 9.29-3.04L9.29-3.04L9.29-5.24L6.90-5.24L6.90-7.60L12.71-7.60ZM17.31-6.34L14.70-6.95L15.57-14.22L23.88-14.22L23.88-11.66L18.24-11.66L17.92-8.84Q18.27-9.04 18.84-9.20Q19.41-9.36 19.96-9.36L19.96-9.36Q22.08-9.36 23.22-8.10Q24.36-6.85 24.36-4.58L24.36-4.58Q24.36-3.21 23.75-2.10Q23.13-1.00 22.03-0.40Q20.93 0.20 19.42 0.20L19.42 0.20Q18.09 0.20 16.91-0.36Q15.74-0.91 15.08-1.87Q14.41-2.83 14.42-4.04L14.42-4.04L17.72-4.04Q17.77-3.26 18.22-2.80Q18.67-2.34 19.40-2.34L19.40-2.34Q21.06-2.34 21.06-4.80L21.06-4.80Q21.06-7.08 19.03-7.08L19.03-7.08Q17.88-7.08 17.31-6.34L17.31-6.34Z"></path></g></g></svg>